<?xml version="1.0" encoding="UTF-8"?>
<svg xmlns="http://www.w3.org/2000/svg" xmlns:xlink="http://www.w3.org/1999/xlink" width="1008pt" height="504pt" viewBox="0 0 1008 504" version="1.1">
<defs>
<clipPath id="clip1">
  <path d="M 14.398438 14.398438 L 994.597656 14.398438 L 994.597656 490.597656 L 14.398438 490.597656 Z M 14.398438 14.398438 "/>
</clipPath>
</defs>
<g id="surface46">
<rect x="0" y="0" width="1008" height="504" style="fill:rgb(100%,100%,100%);fill-opacity:1;stroke:none;"/>
<g clip-path="url(#clip1)" clip-rule="nonzero">
<path style="fill:none;stroke-width:1.5;stroke-linecap:round;stroke-linejoin:round;stroke:rgb(0%,0%,0%);stroke-opacity:1;stroke-miterlimit:10;" d="M 359.371094 472 L 359.371094 44.222656 L 636.40625 44.222656 L 636.40625 472 L 359.371094 472 "/>
<path style="fill:none;stroke-width:1.5;stroke-linecap:round;stroke-linejoin:round;stroke:rgb(0%,0%,0%);stroke-opacity:1;stroke-miterlimit:10;" d="M 359.371094 258.109375 L 636.40625 258.109375 "/>
<path style="fill:none;stroke-width:1.5;stroke-linecap:round;stroke-linejoin:round;stroke:rgb(0%,0%,0%);stroke-opacity:1;stroke-miterlimit:10;" d="M 535.167969 258.109375 C 535.167969 278.699219 518.476563 295.390625 497.890625 295.390625 C 477.300781 295.390625 460.609375 278.699219 460.609375 258.109375 C 460.609375 237.523438 477.300781 220.832031 497.890625 220.832031 C 518.476563 220.832031 535.167969 237.523438 535.167969 258.109375 "/>
<path style="fill:none;stroke-width:1.5;stroke-linecap:round;stroke-linejoin:round;stroke:rgb(0%,0%,0%);stroke-opacity:1;stroke-miterlimit:10;" d="M 460.609375 449.59375 L 535.164063 449.59375 L 535.164063 472 L 460.609375 472 Z M 460.609375 449.59375 "/>
<path style="fill:none;stroke-width:1.5;stroke-linecap:round;stroke-linejoin:round;stroke:rgb(0%,0%,0%);stroke-opacity:1;stroke-miterlimit:10;" d="M 460.609375 44.222656 L 535.164063 44.222656 L 535.164063 66.628906 L 460.609375 66.628906 Z M 460.609375 44.222656 "/>
<path style="fill:none;stroke-width:1.5;stroke-linecap:round;stroke-linejoin:round;stroke:rgb(0%,0%,0%);stroke-opacity:1;stroke-miterlimit:10;" d="M 415.796875 404.777344 L 579.980469 404.777344 L 579.980469 472 L 415.796875 472 Z M 415.796875 404.777344 "/>
<path style="fill:none;stroke-width:1.5;stroke-linecap:round;stroke-linejoin:round;stroke:rgb(0%,0%,0%);stroke-opacity:1;stroke-miterlimit:10;" d="M 415.796875 44.222656 L 579.980469 44.222656 L 579.980469 111.445313 L 415.796875 111.445313 Z M 415.796875 44.222656 "/>
<path style="fill:none;stroke-width:1.5;stroke-linecap:round;stroke-linejoin:round;stroke:rgb(0%,0%,0%);stroke-opacity:1;stroke-miterlimit:10;" d="M 526.234375 402.976563 L 525.992188 402.691406 L 525.746094 402.414063 L 525.246094 401.859375 L 524.472656 401.050781 L 524.210938 400.789063 L 523.945313 400.527344 L 523.675781 400.265625 L 523.40625 400.007813 L 523.132813 399.757813 L 522.859375 399.503906 L 522.578125 399.257813 L 522.300781 399.011719 L 521.730469 398.527344 L 521.152344 398.058594 L 520.566406 397.597656 L 520.269531 397.371094 L 519.96875 397.152344 L 519.667969 396.929688 L 519.058594 396.5 L 518.441406 396.085938 L 518.128906 395.878906 L 517.816406 395.679688 L 517.5 395.480469 L 516.539063 394.90625 L 516.214844 394.722656 L 515.890625 394.542969 L 515.5625 394.363281 L 515.234375 394.1875 L 514.902344 394.015625 L 514.570313 393.847656 L 513.898438 393.519531 L 513.5625 393.363281 L 513.222656 393.207031 L 512.882813 393.054688 L 512.539063 392.90625 L 512.195313 392.761719 L 511.851563 392.621094 L 511.507813 392.484375 L 511.15625 392.347656 L 510.808594 392.21875 L 510.457031 392.089844 L 510.105469 391.964844 L 509.402344 391.730469 L 509.046875 391.617188 L 508.6875 391.507813 L 508.332031 391.398438 L 507.972656 391.296875 L 507.253906 391.101563 L 506.890625 391.011719 L 506.53125 390.921875 L 505.804688 390.757813 L 505.4375 390.679688 L 505.074219 390.605469 L 504.707031 390.535156 L 504.339844 390.46875 L 503.972656 390.40625 L 503.605469 390.347656 L 503.234375 390.292969 L 502.867188 390.242188 L 502.496094 390.191406 L 502.128906 390.148438 L 501.386719 390.070313 L 500.644531 390.007813 L 500.269531 389.984375 L 499.898438 389.960938 L 499.527344 389.945313 L 499.152344 389.929688 L 498.78125 389.917969 L 498.410156 389.910156 L 498.035156 389.90625 L 497.664063 389.90625 L 497.289063 389.914063 L 496.917969 389.921875 L 496.542969 389.933594 L 496.171875 389.945313 L 495.800781 389.964844 L 495.429688 389.988281 L 495.054688 390.015625 L 494.3125 390.078125 L 493.570313 390.15625 L 493.203125 390.203125 L 492.832031 390.25 L 492.464844 390.304688 L 492.09375 390.359375 L 491.359375 390.484375 L 490.992188 390.550781 L 490.625 390.621094 L 490.261719 390.695313 L 489.898438 390.773438 L 489.535156 390.855469 L 489.171875 390.941406 L 488.808594 391.03125 L 488.449219 391.121094 L 488.085938 391.21875 L 487.726563 391.320313 L 487.371094 391.421875 L 487.011719 391.527344 L 486.300781 391.753906 L 485.949219 391.871094 L 485.597656 391.992188 L 485.246094 392.117188 L 484.894531 392.246094 L 484.199219 392.511719 L 483.851563 392.652344 L 483.507813 392.792969 L 483.164063 392.9375 L 482.824219 393.085938 L 482.484375 393.238281 L 482.144531 393.394531 L 481.808594 393.554688 L 481.136719 393.882813 L 480.804688 394.050781 L 480.476563 394.226563 L 480.144531 394.402344 L 479.820313 394.578125 L 479.492188 394.761719 L 479.171875 394.949219 L 478.847656 395.136719 L 478.53125 395.328125 L 478.210938 395.523438 L 477.894531 395.722656 L 477.582031 395.921875 L 477.269531 396.128906 L 476.960938 396.335938 L 476.652344 396.546875 L 476.347656 396.761719 L 476.046875 396.976563 L 475.445313 397.421875 L 475.148438 397.644531 L 474.5625 398.105469 L 474.273438 398.339844 L 473.988281 398.578125 L 473.417969 399.0625 L 473.140625 399.308594 L 472.585938 399.808594 L 472.3125 400.0625 L 472.042969 400.320313 L 471.511719 400.84375 L 471.25 401.109375 L 470.992188 401.375 L 470.734375 401.644531 L 470.480469 401.917969 L 470.226563 402.195313 L 469.980469 402.472656 L 469.734375 402.753906 L 469.542969 402.976563 "/>
<path style="fill:none;stroke-width:1.5;stroke-linecap:round;stroke-linejoin:round;stroke:rgb(0%,0%,0%);stroke-opacity:1;stroke-miterlimit:10;" d="M 468.613281 112.117188 L 469.082031 112.695313 L 469.320313 112.984375 L 469.558594 113.269531 L 469.804688 113.550781 L 470.050781 113.828125 L 470.550781 114.382813 L 470.808594 114.652344 L 471.0625 114.921875 L 471.324219 115.191406 L 471.585938 115.453125 L 471.851563 115.714844 L 472.121094 115.976563 L 472.390625 116.230469 L 472.664063 116.484375 L 473.21875 116.984375 L 473.5 117.230469 L 473.78125 117.472656 L 474.066406 117.710938 L 474.355469 117.949219 L 474.644531 118.183594 L 474.9375 118.414063 L 475.53125 118.867188 L 475.832031 119.089844 L 476.132813 119.308594 L 476.4375 119.523438 L 476.742188 119.734375 L 477.050781 119.945313 L 477.359375 120.152344 L 477.984375 120.558594 L 478.300781 120.753906 L 478.621094 120.949219 L 478.941406 121.140625 L 479.261719 121.328125 L 479.585938 121.511719 L 479.914063 121.695313 L 480.238281 121.871094 L 480.570313 122.046875 L 480.898438 122.21875 L 481.234375 122.386719 L 481.566406 122.550781 L 481.902344 122.714844 L 482.242188 122.871094 L 482.578125 123.027344 L 482.921875 123.175781 L 483.261719 123.324219 L 483.605469 123.46875 L 483.949219 123.609375 L 484.296875 123.75 L 484.644531 123.882813 L 484.996094 124.011719 L 485.34375 124.140625 L 485.695313 124.265625 L 486.050781 124.382813 L 486.402344 124.5 L 486.757813 124.613281 L 487.113281 124.722656 L 487.832031 124.933594 L 488.191406 125.03125 L 488.910156 125.21875 L 489.636719 125.390625 L 490 125.472656 L 490.367188 125.546875 L 490.730469 125.621094 L 491.097656 125.691406 L 491.464844 125.757813 L 491.832031 125.820313 L 492.199219 125.878906 L 492.570313 125.933594 L 492.9375 125.984375 L 493.679688 126.078125 L 494.046875 126.117188 L 494.789063 126.1875 L 495.164063 126.214844 L 495.535156 126.242188 L 496.277344 126.28125 L 496.652344 126.292969 L 497.023438 126.304688 L 497.398438 126.3125 L 497.769531 126.316406 L 498.140625 126.3125 L 498.515625 126.308594 L 498.886719 126.300781 L 499.261719 126.289063 L 499.632813 126.273438 L 500.003906 126.253906 L 500.375 126.230469 L 500.75 126.203125 L 501.121094 126.175781 L 501.492188 126.140625 L 502.234375 126.0625 L 502.601563 126.015625 L 502.972656 125.964844 L 503.339844 125.914063 L 503.710938 125.859375 L 504.445313 125.734375 L 504.8125 125.667969 L 505.175781 125.59375 L 505.542969 125.519531 L 505.90625 125.441406 L 506.269531 125.359375 L 506.632813 125.273438 L 506.996094 125.183594 L 507.355469 125.09375 L 507.714844 124.996094 L 508.433594 124.792969 L 508.789063 124.683594 L 509.148438 124.574219 L 509.5 124.460938 L 509.855469 124.34375 L 510.910156 123.96875 L 511.257813 123.835938 L 511.605469 123.699219 L 511.949219 123.5625 L 512.296875 123.417969 L 512.636719 123.273438 L 512.980469 123.125 L 513.320313 122.972656 L 513.660156 122.816406 L 513.996094 122.65625 L 514.332031 122.492188 L 514.664063 122.328125 L 515.328125 121.984375 L 515.65625 121.808594 L 515.984375 121.628906 L 516.308594 121.445313 L 516.628906 121.261719 L 516.953125 121.070313 L 517.269531 120.878906 L 517.589844 120.683594 L 517.90625 120.484375 L 518.21875 120.285156 L 518.53125 120.078125 L 518.839844 119.871094 L 519.144531 119.660156 L 519.753906 119.230469 L 520.355469 118.785156 L 520.648438 118.558594 L 520.945313 118.332031 L 521.523438 117.863281 L 521.8125 117.625 L 522.097656 117.386719 L 522.660156 116.894531 L 522.9375 116.644531 L 523.210938 116.394531 L 523.484375 116.140625 L 523.753906 115.882813 L 524.285156 115.359375 L 524.546875 115.09375 L 524.804688 114.828125 L 525.0625 114.554688 L 525.316406 114.28125 L 525.566406 114.007813 L 525.816406 113.730469 L 526.0625 113.449219 L 526.304688 113.164063 L 526.78125 112.59375 L 527.015625 112.304688 L 527.164063 112.117188 "/>
<path style="fill:none;stroke-width:1.5;stroke-linecap:round;stroke-linejoin:round;stroke:rgb(0%,0%,0%);stroke-opacity:1;stroke-miterlimit:10;" d="M 483.019531 471.390625 L 512.761719 471.390625 L 512.761719 481.574219 L 483.019531 481.574219 Z M 483.019531 471.390625 "/>
<path style="fill:none;stroke-width:1.5;stroke-linecap:round;stroke-linejoin:round;stroke:rgb(0%,0%,0%);stroke-opacity:1;stroke-miterlimit:10;" d="M 483.019531 34.445313 L 512.761719 34.445313 L 512.761719 44.628906 L 483.019531 44.628906 Z M 483.019531 34.445313 "/>
<path style="fill:none;stroke-width:1.5;stroke-linecap:round;stroke-linejoin:round;stroke:rgb(0%,0%,0%);stroke-opacity:1;stroke-miterlimit:10;" d="M 363.445313 472 L 363.445313 471.917969 L 363.441406 471.878906 L 363.441406 471.835938 L 363.4375 471.796875 L 363.4375 471.753906 L 363.429688 471.675781 L 363.429688 471.632813 L 363.425781 471.59375 L 363.417969 471.554688 L 363.414063 471.511719 L 363.410156 471.472656 L 363.40625 471.429688 L 363.390625 471.351563 L 363.386719 471.3125 L 363.378906 471.269531 L 363.355469 471.152344 L 363.347656 471.109375 L 363.335938 471.070313 L 363.328125 471.03125 L 363.316406 470.992188 L 363.308594 470.953125 L 363.226563 470.679688 L 363.210938 470.640625 L 363.199219 470.601563 L 363.183594 470.566406 L 363.136719 470.449219 L 363.121094 470.414063 L 363.105469 470.375 L 363.089844 470.339844 L 363.074219 470.300781 L 363.054688 470.265625 L 363.039063 470.226563 L 363.019531 470.191406 L 363.003906 470.15625 L 362.984375 470.117188 L 362.886719 469.941406 L 362.863281 469.90625 L 362.84375 469.871094 L 362.820313 469.835938 L 362.800781 469.800781 L 362.777344 469.765625 L 362.753906 469.734375 L 362.734375 469.699219 L 362.710938 469.667969 L 362.6875 469.632813 L 362.664063 469.601563 L 362.636719 469.566406 L 362.589844 469.503906 L 362.5625 469.46875 L 362.539063 469.4375 L 362.511719 469.40625 L 362.488281 469.375 L 362.40625 469.28125 L 362.378906 469.253906 L 362.324219 469.191406 L 362.296875 469.164063 L 362.265625 469.136719 L 362.238281 469.105469 L 362.207031 469.078125 L 362.121094 468.992188 L 362.058594 468.9375 L 362.027344 468.914063 L 361.964844 468.859375 L 361.933594 468.835938 L 361.902344 468.808594 L 361.871094 468.785156 L 361.839844 468.757813 L 361.804688 468.734375 L 361.773438 468.710938 L 361.738281 468.6875 L 361.707031 468.664063 L 361.671875 468.640625 L 361.640625 468.617188 L 361.570313 468.570313 L 361.539063 468.550781 L 361.503906 468.527344 L 361.433594 468.488281 L 361.398438 468.464844 L 361.328125 468.425781 L 361.289063 468.40625 L 361.253906 468.386719 L 361.21875 468.371094 L 361.183594 468.351563 L 361.144531 468.332031 L 361.109375 468.316406 L 361.070313 468.296875 L 361.035156 468.28125 L 360.996094 468.265625 L 360.960938 468.25 L 360.882813 468.21875 L 360.847656 468.203125 L 360.808594 468.1875 L 360.769531 468.175781 L 360.730469 468.160156 L 360.695313 468.148438 L 360.65625 468.132813 L 360.421875 468.0625 L 360.382813 468.054688 L 360.34375 468.042969 L 360.300781 468.035156 L 360.261719 468.023438 L 360.144531 468 L 360.101563 467.992188 L 360.023438 467.976563 L 359.980469 467.972656 L 359.941406 467.964844 L 359.902344 467.960938 L 359.859375 467.957031 L 359.820313 467.949219 L 359.78125 467.945313 L 359.738281 467.941406 L 359.699219 467.9375 L 359.660156 467.9375 L 359.617188 467.933594 L 359.578125 467.929688 L 359.496094 467.929688 L 359.457031 467.925781 L 359.371094 467.925781 "/>
<path style="fill:none;stroke-width:1.5;stroke-linecap:round;stroke-linejoin:round;stroke:rgb(0%,0%,0%);stroke-opacity:1;stroke-miterlimit:10;" d="M 636.40625 467.925781 L 636.324219 467.925781 L 636.285156 467.929688 L 636.203125 467.929688 L 636.164063 467.933594 L 636.121094 467.9375 L 636.082031 467.9375 L 636.042969 467.941406 L 636 467.945313 L 635.960938 467.949219 L 635.917969 467.957031 L 635.839844 467.964844 L 635.796875 467.972656 L 635.757813 467.976563 L 635.679688 467.992188 L 635.636719 468 L 635.519531 468.023438 L 635.480469 468.035156 L 635.4375 468.042969 L 635.398438 468.050781 L 635.085938 468.144531 L 635.046875 468.160156 L 635.011719 468.171875 L 634.933594 468.203125 L 634.894531 468.214844 L 634.859375 468.230469 L 634.820313 468.246094 L 634.785156 468.261719 L 634.746094 468.28125 L 634.710938 468.296875 L 634.671875 468.3125 L 634.636719 468.332031 L 634.597656 468.347656 L 634.527344 468.386719 L 634.488281 468.40625 L 634.3125 468.503906 L 634.277344 468.527344 L 634.242188 468.546875 L 634.207031 468.570313 L 634.175781 468.59375 L 634.140625 468.613281 L 634.105469 468.636719 L 634.074219 468.660156 L 634.039063 468.683594 L 634.007813 468.707031 L 633.972656 468.730469 L 633.941406 468.757813 L 633.910156 468.78125 L 633.878906 468.808594 L 633.84375 468.832031 L 633.8125 468.859375 L 633.78125 468.882813 L 633.75 468.910156 L 633.722656 468.9375 L 633.628906 469.019531 L 633.601563 469.046875 L 633.570313 469.074219 L 633.542969 469.105469 L 633.511719 469.132813 L 633.484375 469.160156 L 633.457031 469.191406 L 633.429688 469.21875 L 633.320313 469.34375 L 633.292969 469.371094 L 633.265625 469.402344 L 633.242188 469.4375 L 633.214844 469.46875 L 633.167969 469.53125 L 633.140625 469.5625 L 633.117188 469.597656 L 633.09375 469.628906 L 633.070313 469.664063 L 633.046875 469.695313 L 633 469.765625 L 632.980469 469.796875 L 632.957031 469.832031 L 632.9375 469.867188 L 632.914063 469.902344 L 632.875 469.972656 L 632.851563 470.007813 L 632.8125 470.078125 L 632.796875 470.117188 L 632.757813 470.1875 L 632.742188 470.226563 L 632.722656 470.261719 L 632.707031 470.296875 L 632.6875 470.335938 L 632.671875 470.375 L 632.65625 470.410156 L 632.640625 470.449219 L 632.625 470.484375 L 632.59375 470.5625 L 632.582031 470.601563 L 632.566406 470.636719 L 632.542969 470.714844 L 632.527344 470.753906 L 632.480469 470.910156 L 632.472656 470.949219 L 632.449219 471.027344 L 632.441406 471.066406 L 632.433594 471.109375 L 632.421875 471.148438 L 632.398438 471.265625 L 632.394531 471.308594 L 632.378906 471.386719 L 632.375 471.429688 L 632.367188 471.46875 L 632.363281 471.507813 L 632.359375 471.550781 L 632.351563 471.628906 L 632.347656 471.671875 L 632.34375 471.710938 L 632.339844 471.753906 L 632.339844 471.792969 L 632.335938 471.832031 L 632.335938 471.914063 L 632.332031 471.957031 L 632.332031 472 "/>
<path style="fill:none;stroke-width:1.5;stroke-linecap:round;stroke-linejoin:round;stroke:rgb(0%,0%,0%);stroke-opacity:1;stroke-miterlimit:10;" d="M 632.332031 44.222656 L 632.332031 44.261719 L 632.335938 44.304688 L 632.335938 44.386719 L 632.339844 44.425781 L 632.339844 44.464844 L 632.34375 44.507813 L 632.347656 44.546875 L 632.351563 44.589844 L 632.359375 44.667969 L 632.363281 44.710938 L 632.367188 44.75 L 632.375 44.789063 L 632.378906 44.832031 L 632.386719 44.871094 L 632.390625 44.910156 L 632.398438 44.953125 L 632.429688 45.109375 L 632.441406 45.152344 L 632.449219 45.191406 L 632.460938 45.230469 L 632.46875 45.269531 L 632.539063 45.503906 L 632.554688 45.542969 L 632.566406 45.582031 L 632.582031 45.621094 L 632.59375 45.65625 L 632.625 45.734375 L 632.640625 45.769531 L 632.671875 45.847656 L 632.6875 45.882813 L 632.703125 45.921875 L 632.722656 45.957031 L 632.738281 45.996094 L 632.757813 46.03125 L 632.773438 46.066406 L 632.792969 46.105469 L 632.890625 46.28125 L 632.914063 46.316406 L 632.933594 46.351563 L 632.957031 46.386719 L 632.976563 46.421875 L 633 46.453125 L 633.046875 46.523438 L 633.066406 46.554688 L 633.089844 46.589844 L 633.117188 46.621094 L 633.140625 46.65625 L 633.1875 46.71875 L 633.214844 46.753906 L 633.238281 46.785156 L 633.292969 46.847656 L 633.316406 46.878906 L 633.34375 46.910156 L 633.371094 46.9375 L 633.425781 47 L 633.511719 47.085938 L 633.539063 47.117188 L 633.570313 47.144531 L 633.597656 47.171875 L 633.628906 47.199219 L 633.65625 47.230469 L 633.6875 47.257813 L 633.71875 47.28125 L 633.8125 47.363281 L 633.84375 47.386719 L 633.875 47.414063 L 633.90625 47.4375 L 633.9375 47.464844 L 633.972656 47.488281 L 634.003906 47.511719 L 634.039063 47.535156 L 634.070313 47.558594 L 634.105469 47.582031 L 634.136719 47.605469 L 634.207031 47.652344 L 634.242188 47.671875 L 634.273438 47.695313 L 634.34375 47.734375 L 634.378906 47.757813 L 634.414063 47.777344 L 634.453125 47.796875 L 634.523438 47.835938 L 634.558594 47.851563 L 634.597656 47.871094 L 634.632813 47.890625 L 634.667969 47.90625 L 634.707031 47.925781 L 634.742188 47.941406 L 634.78125 47.957031 L 634.816406 47.972656 L 634.894531 48.003906 L 634.929688 48.019531 L 634.96875 48.035156 L 635.007813 48.046875 L 635.046875 48.0625 L 635.085938 48.074219 L 635.121094 48.089844 L 635.355469 48.160156 L 635.394531 48.167969 L 635.4375 48.179688 L 635.476563 48.1875 L 635.515625 48.199219 L 635.59375 48.214844 L 635.636719 48.222656 L 635.714844 48.238281 L 635.753906 48.242188 L 635.796875 48.25 L 635.835938 48.257813 L 635.875 48.261719 L 635.917969 48.265625 L 635.957031 48.269531 L 635.996094 48.277344 L 636.039063 48.28125 L 636.078125 48.28125 L 636.121094 48.285156 L 636.199219 48.292969 L 636.28125 48.292969 L 636.324219 48.296875 L 636.40625 48.296875 "/>
<path style="fill:none;stroke-width:1.5;stroke-linecap:round;stroke-linejoin:round;stroke:rgb(0%,0%,0%);stroke-opacity:1;stroke-miterlimit:10;" d="M 359.371094 48.296875 L 359.453125 48.296875 L 359.492188 48.292969 L 359.574219 48.292969 L 359.613281 48.289063 L 359.65625 48.285156 L 359.695313 48.285156 L 359.738281 48.28125 L 359.816406 48.273438 L 359.859375 48.265625 L 359.9375 48.257813 L 359.980469 48.25 L 360.019531 48.246094 L 360.058594 48.238281 L 360.101563 48.230469 L 360.257813 48.199219 L 360.300781 48.1875 L 360.339844 48.179688 L 360.378906 48.167969 L 360.417969 48.160156 L 360.691406 48.078125 L 360.730469 48.0625 L 360.765625 48.050781 L 360.882813 48.003906 L 360.917969 47.992188 L 360.957031 47.976563 L 360.996094 47.957031 L 361.03125 47.941406 L 361.070313 47.925781 L 361.105469 47.910156 L 361.140625 47.890625 L 361.179688 47.871094 L 361.214844 47.855469 L 361.25 47.835938 L 361.289063 47.816406 L 361.429688 47.738281 L 361.464844 47.714844 L 361.535156 47.675781 L 361.570313 47.652344 L 361.601563 47.628906 L 361.636719 47.609375 L 361.671875 47.585938 L 361.703125 47.5625 L 361.738281 47.539063 L 361.769531 47.515625 L 361.804688 47.488281 L 361.867188 47.441406 L 361.898438 47.414063 L 361.933594 47.390625 L 361.964844 47.363281 L 361.996094 47.339844 L 362.058594 47.285156 L 362.085938 47.257813 L 362.148438 47.203125 L 362.175781 47.175781 L 362.207031 47.148438 L 362.234375 47.117188 L 362.265625 47.089844 L 362.292969 47.0625 L 362.347656 47 L 362.375 46.972656 L 362.511719 46.816406 L 362.535156 46.785156 L 362.5625 46.753906 L 362.585938 46.722656 L 362.613281 46.691406 L 362.636719 46.65625 L 362.683594 46.59375 L 362.730469 46.523438 L 362.753906 46.492188 L 362.777344 46.457031 L 362.796875 46.421875 L 362.820313 46.390625 L 362.84375 46.355469 L 362.882813 46.285156 L 362.90625 46.25 L 362.945313 46.179688 L 362.964844 46.140625 L 362.984375 46.105469 L 363 46.070313 L 363.019531 46.035156 L 363.039063 45.996094 L 363.054688 45.960938 L 363.070313 45.921875 L 363.089844 45.886719 L 363.105469 45.847656 L 363.121094 45.8125 L 363.136719 45.773438 L 363.152344 45.738281 L 363.183594 45.660156 L 363.195313 45.621094 L 363.210938 45.582031 L 363.222656 45.546875 L 363.238281 45.507813 L 363.308594 45.273438 L 363.316406 45.234375 L 363.328125 45.195313 L 363.335938 45.152344 L 363.34375 45.113281 L 363.355469 45.074219 L 363.371094 44.996094 L 363.378906 44.953125 L 363.386719 44.914063 L 363.390625 44.875 L 363.398438 44.835938 L 363.402344 44.792969 L 363.410156 44.753906 L 363.414063 44.714844 L 363.417969 44.671875 L 363.421875 44.632813 L 363.425781 44.589844 L 363.433594 44.511719 L 363.4375 44.46875 L 363.4375 44.429688 L 363.441406 44.386719 L 363.441406 44.347656 L 363.445313 44.308594 L 363.445313 44.222656 "/>
</g>
</g>
</svg>
