<?xml version="1.0" encoding="utf-8"?>
<!-- Generator: Adobe Illustrator 16.0.4, SVG Export Plug-In . SVG Version: 6.00 Build 0)  -->
<!DOCTYPE svg PUBLIC "-//W3C//DTD SVG 1.1//EN" "http://www.w3.org/Graphics/SVG/1.1/DTD/svg11.dtd">
<svg version="1.1" id="Layer_1" xmlns="http://www.w3.org/2000/svg" xmlns:xlink="http://www.w3.org/1999/xlink" x="0px" y="0px"
	 width="281px" height="449px" viewBox="357.5 33.5 281 449" enable-background="new 357.5 33.5 281 449" xml:space="preserve">
<g id="surface56">
	<rect fill="#FFFFFF" width="1008" height="504"/>
	<g>
		<defs>
			<rect id="SVGID_1_" x="14.398" y="14.398" width="980.199" height="476.199"/>
		</defs>
		<clipPath id="SVGID_2_">
			<use xlink:href="#SVGID_1_"  overflow="visible"/>
		</clipPath>
		<g clip-path="url(#SVGID_2_)">
			
				<path fill="#00FF00" stroke="#000000" stroke-width="1.5" stroke-linecap="round" stroke-linejoin="round" stroke-miterlimit="10" d="
				M359.371,472V44.223h277.035V472H359.371z"/>
			
				<path fill="none" stroke="#000000" stroke-width="1.5" stroke-linecap="round" stroke-linejoin="round" stroke-miterlimit="10" d="
				M359.371,258.109h277.035"/>
			
				<path fill="none" stroke="#000000" stroke-width="1.5" stroke-linecap="round" stroke-linejoin="round" stroke-miterlimit="10" d="
				M535.168,258.109c0,20.59-16.691,37.281-37.277,37.281c-20.59,0-37.281-16.691-37.281-37.281
				c0-20.586,16.691-37.277,37.281-37.277C518.477,220.832,535.168,237.523,535.168,258.109"/>
			
				<path fill="none" stroke="#000000" stroke-width="1.5" stroke-linecap="round" stroke-linejoin="round" stroke-miterlimit="10" d="
				M460.609,449.594h74.555V472h-74.555V449.594z"/>
			
				<path fill="none" stroke="#000000" stroke-width="1.5" stroke-linecap="round" stroke-linejoin="round" stroke-miterlimit="10" d="
				M460.609,44.223h74.555v22.406h-74.555V44.223z"/>
			
				<path fill="none" stroke="#000000" stroke-width="1.5" stroke-linecap="round" stroke-linejoin="round" stroke-miterlimit="10" d="
				M415.797,404.777H579.98V472H415.797V404.777z"/>
			
				<path fill="none" stroke="#000000" stroke-width="1.5" stroke-linecap="round" stroke-linejoin="round" stroke-miterlimit="10" d="
				M415.797,44.223H579.98v67.223H415.797V44.223z"/>
			
				<path fill="none" stroke="#000000" stroke-width="1.5" stroke-linecap="round" stroke-linejoin="round" stroke-miterlimit="10" d="
				M526.234,402.977l-0.242-0.285l-0.246-0.277l-0.5-0.555l-0.773-0.809l-0.262-0.262l-0.266-0.262l-0.27-0.262l-0.27-0.258
				l-0.273-0.25l-0.273-0.254l-0.281-0.246l-0.277-0.246l-0.57-0.484l-0.578-0.469l-0.586-0.461l-0.297-0.227l-0.301-0.219
				l-0.301-0.223l-0.609-0.43l-0.617-0.414l-0.312-0.207l-0.312-0.199l-0.316-0.199l-0.961-0.574l-0.324-0.184l-0.324-0.18
				l-0.328-0.18l-0.328-0.176l-0.332-0.172l-0.332-0.168l-0.672-0.328l-0.336-0.156l-0.34-0.156l-0.34-0.152l-0.344-0.148
				l-0.344-0.145l-0.344-0.141l-0.344-0.137l-0.352-0.137l-0.348-0.129l-0.352-0.129l-0.352-0.125l-0.703-0.234l-0.355-0.113
				l-0.359-0.109l-0.355-0.109l-0.359-0.102l-0.719-0.195l-0.363-0.09l-0.359-0.09l-0.727-0.164l-0.367-0.078l-0.363-0.074
				l-0.367-0.07l-0.367-0.066l-0.367-0.062l-0.367-0.059l-0.371-0.055l-0.367-0.051l-0.371-0.051l-0.367-0.043l-0.742-0.078
				l-0.742-0.062l-0.375-0.023l-0.371-0.023l-0.371-0.016l-0.375-0.016l-0.371-0.012l-0.371-0.008l-0.375-0.004h-0.371l-0.375,0.008
				l-0.371,0.008l-0.375,0.012l-0.371,0.012l-0.371,0.02l-0.371,0.023l-0.375,0.027l-0.742,0.062l-0.742,0.078l-0.367,0.047
				l-0.371,0.047l-0.367,0.055l-0.371,0.055l-0.734,0.125l-0.367,0.066l-0.367,0.07l-0.363,0.074l-0.363,0.078l-0.363,0.082
				l-0.363,0.086l-0.363,0.09l-0.359,0.09l-0.363,0.098l-0.359,0.102l-0.355,0.102l-0.359,0.105l-0.711,0.227l-0.352,0.117
				l-0.352,0.121l-0.352,0.125l-0.352,0.129l-0.695,0.266l-0.348,0.141l-0.344,0.141l-0.344,0.145l-0.34,0.148l-0.34,0.152
				l-0.34,0.156l-0.336,0.16l-0.672,0.328l-0.332,0.168l-0.328,0.176l-0.332,0.176l-0.324,0.176l-0.328,0.184l-0.32,0.188
				l-0.324,0.188l-0.316,0.191l-0.32,0.195l-0.316,0.199l-0.312,0.199l-0.312,0.207l-0.309,0.207l-0.309,0.211l-0.305,0.215
				l-0.301,0.215l-0.602,0.445l-0.297,0.223l-0.586,0.461l-0.289,0.234l-0.285,0.238l-0.57,0.484l-0.277,0.246l-0.555,0.5
				l-0.273,0.254l-0.27,0.258l-0.531,0.523l-0.262,0.266l-0.258,0.266l-0.258,0.27l-0.254,0.273l-0.254,0.277l-0.246,0.277
				l-0.246,0.281l-0.191,0.223"/>
			
				<path fill="none" stroke="#000000" stroke-width="1.5" stroke-linecap="round" stroke-linejoin="round" stroke-miterlimit="10" d="
				M468.613,112.117l0.469,0.578l0.238,0.289l0.238,0.285l0.246,0.281l0.246,0.277l0.5,0.555l0.258,0.27l0.254,0.27l0.262,0.27
				l0.262,0.262l0.266,0.262l0.27,0.262l0.27,0.254l0.273,0.254l0.555,0.5l0.281,0.246l0.281,0.242l0.285,0.238l0.289,0.238
				l0.289,0.234l0.293,0.23l0.594,0.453l0.301,0.223l0.301,0.219l0.305,0.215l0.305,0.211l0.309,0.211l0.309,0.207l0.625,0.406
				l0.316,0.195l0.32,0.195l0.32,0.191l0.32,0.188l0.324,0.184l0.328,0.184l0.324,0.176l0.332,0.176l0.328,0.172l0.336,0.168
				l0.332,0.164l0.336,0.164l0.34,0.156l0.336,0.156l0.344,0.148l0.34,0.148l0.344,0.145l0.344,0.141l0.348,0.141l0.348,0.133
				l0.352,0.129l0.348,0.129l0.352,0.125l0.355,0.117l0.352,0.117l0.355,0.113l0.355,0.109l0.719,0.211l0.359,0.098l0.719,0.188
				l0.727,0.172l0.363,0.082l0.367,0.074l0.363,0.074l0.367,0.07l0.367,0.066l0.367,0.062l0.367,0.059l0.371,0.055l0.367,0.051
				l0.742,0.094l0.367,0.039l0.742,0.07l0.375,0.027l0.371,0.027l0.742,0.039l0.375,0.012l0.371,0.012l0.375,0.008l0.371,0.004
				l0.371-0.004l0.375-0.004l0.371-0.008l0.375-0.012l0.371-0.016l0.371-0.02l0.371-0.023l0.375-0.027l0.371-0.027l0.371-0.035
				l0.742-0.078l0.367-0.047l0.371-0.051l0.367-0.051l0.371-0.055l0.734-0.125l0.367-0.066l0.363-0.074l0.367-0.074l0.363-0.078
				l0.363-0.082l0.363-0.086l0.363-0.09l0.359-0.09l0.359-0.098l0.719-0.203l0.355-0.109l0.359-0.109l0.352-0.113l0.355-0.117
				l1.055-0.375l0.348-0.133l0.348-0.137l0.344-0.137l0.348-0.145l0.34-0.145l0.344-0.148l0.34-0.152l0.34-0.156l0.336-0.16
				l0.336-0.164l0.332-0.164l0.664-0.344l0.328-0.176l0.328-0.18l0.324-0.184l0.32-0.184l0.324-0.191l0.316-0.191l0.32-0.195
				l0.316-0.199l0.312-0.199l0.312-0.207l0.309-0.207l0.305-0.211l0.609-0.43l0.602-0.445l0.293-0.227l0.297-0.227l0.578-0.469
				l0.289-0.238l0.285-0.238l0.562-0.492l0.277-0.25l0.273-0.25l0.273-0.254l0.27-0.258l0.531-0.523l0.262-0.266l0.258-0.266
				l0.258-0.273l0.254-0.273l0.25-0.273l0.25-0.277l0.246-0.281l0.242-0.285l0.477-0.57l0.234-0.289l0.148-0.188"/>
			
				<path fill="none" stroke="#000000" stroke-width="1.5" stroke-linecap="round" stroke-linejoin="round" stroke-miterlimit="10" d="
				M483.02,471.391h29.742v10.184H483.02V471.391z"/>
			
				<path fill="none" stroke="#000000" stroke-width="1.5" stroke-linecap="round" stroke-linejoin="round" stroke-miterlimit="10" d="
				M483.02,34.445h29.742v10.184H483.02V34.445z"/>
			
				<path fill="none" stroke="#000000" stroke-width="1.5" stroke-linecap="round" stroke-linejoin="round" stroke-miterlimit="10" d="
				M363.445,472v-0.082l-0.004-0.039v-0.043l-0.004-0.039v-0.043l-0.008-0.078v-0.043l-0.004-0.039l-0.008-0.039l-0.004-0.043
				l-0.004-0.039l-0.004-0.043l-0.016-0.078l-0.004-0.039l-0.008-0.043l-0.023-0.117l-0.008-0.043l-0.012-0.039l-0.008-0.039
				l-0.012-0.039l-0.008-0.039l-0.082-0.273l-0.016-0.039l-0.012-0.039l-0.016-0.035l-0.047-0.117l-0.016-0.035l-0.016-0.039
				l-0.016-0.035l-0.016-0.039l-0.02-0.035l-0.016-0.039l-0.02-0.035l-0.016-0.035l-0.02-0.039l-0.098-0.176l-0.023-0.035
				l-0.02-0.035l-0.023-0.035l-0.02-0.035l-0.023-0.035l-0.023-0.031l-0.02-0.035l-0.023-0.031l-0.023-0.035l-0.023-0.031
				l-0.027-0.035l-0.047-0.062l-0.027-0.035l-0.023-0.031l-0.027-0.031l-0.023-0.031l-0.082-0.094l-0.027-0.027l-0.055-0.062
				l-0.027-0.027l-0.031-0.027l-0.027-0.031l-0.031-0.027l-0.086-0.086l-0.062-0.055l-0.031-0.023l-0.062-0.055l-0.031-0.023
				l-0.031-0.027l-0.031-0.023l-0.031-0.027l-0.035-0.023l-0.031-0.023l-0.035-0.023l-0.031-0.023l-0.035-0.023l-0.031-0.023
				l-0.07-0.047l-0.031-0.02l-0.035-0.023l-0.07-0.039l-0.035-0.023l-0.07-0.039l-0.039-0.02l-0.035-0.02l-0.035-0.016l-0.035-0.02
				l-0.039-0.02l-0.035-0.016l-0.039-0.02l-0.035-0.016l-0.039-0.016l-0.035-0.016l-0.078-0.031l-0.035-0.016l-0.039-0.016
				l-0.039-0.012l-0.039-0.016l-0.035-0.012l-0.039-0.016l-0.234-0.07l-0.039-0.008l-0.039-0.012l-0.043-0.008l-0.039-0.012
				L360.145,468l-0.043-0.008l-0.078-0.016l-0.043-0.004l-0.039-0.008l-0.039-0.004l-0.043-0.004l-0.039-0.008l-0.039-0.004
				l-0.043-0.004l-0.039-0.004h-0.039l-0.043-0.004l-0.039-0.004h-0.082l-0.039-0.004h-0.086"/>
			
				<path fill="none" stroke="#000000" stroke-width="1.5" stroke-linecap="round" stroke-linejoin="round" stroke-miterlimit="10" d="
				M636.406,467.926h-0.082l-0.039,0.004h-0.082l-0.039,0.004l-0.043,0.004h-0.039l-0.039,0.004L636,467.945l-0.039,0.004
				l-0.043,0.008l-0.078,0.008l-0.043,0.008l-0.039,0.004l-0.078,0.016L635.637,468l-0.117,0.023l-0.039,0.012l-0.043,0.008
				l-0.039,0.008l-0.312,0.094l-0.039,0.016l-0.035,0.012l-0.078,0.031l-0.039,0.012l-0.035,0.016l-0.039,0.016l-0.035,0.016
				l-0.039,0.02l-0.035,0.016l-0.039,0.016l-0.035,0.02l-0.039,0.016l-0.07,0.039l-0.039,0.02l-0.176,0.098l-0.035,0.023
				l-0.035,0.02l-0.035,0.023l-0.031,0.023l-0.035,0.02l-0.035,0.023l-0.031,0.023l-0.035,0.023l-0.031,0.023l-0.035,0.023
				l-0.031,0.027l-0.031,0.023l-0.031,0.027l-0.035,0.023l-0.031,0.027l-0.031,0.023l-0.031,0.027l-0.027,0.027l-0.094,0.082
				l-0.027,0.027l-0.031,0.027l-0.027,0.031l-0.031,0.027l-0.027,0.027l-0.027,0.031l-0.027,0.027l-0.109,0.125l-0.027,0.027
				l-0.027,0.031l-0.023,0.035l-0.027,0.031l-0.047,0.062l-0.027,0.031l-0.023,0.035l-0.023,0.031l-0.023,0.035l-0.023,0.031
				l-0.047,0.07l-0.02,0.031l-0.023,0.035l-0.02,0.035l-0.023,0.035l-0.039,0.07l-0.023,0.035l-0.039,0.07l-0.016,0.039l-0.039,0.07
				l-0.016,0.039l-0.02,0.035l-0.016,0.035l-0.02,0.039l-0.016,0.039l-0.016,0.035l-0.016,0.039l-0.016,0.035l-0.031,0.078
				l-0.012,0.039l-0.016,0.035l-0.023,0.078l-0.016,0.039l-0.047,0.156l-0.008,0.039l-0.023,0.078l-0.008,0.039l-0.008,0.043
				l-0.012,0.039l-0.023,0.117l-0.004,0.043l-0.016,0.078l-0.004,0.043l-0.008,0.039l-0.004,0.039l-0.004,0.043l-0.008,0.078
				l-0.004,0.043l-0.004,0.039l-0.004,0.043v0.039l-0.004,0.039v0.082l-0.004,0.043V472"/>
			
				<path fill="none" stroke="#000000" stroke-width="1.5" stroke-linecap="round" stroke-linejoin="round" stroke-miterlimit="10" d="
				M632.332,44.223v0.039l0.004,0.043v0.082l0.004,0.039v0.039l0.004,0.043l0.004,0.039l0.004,0.043l0.008,0.078l0.004,0.043
				l0.004,0.039l0.008,0.039l0.004,0.043l0.008,0.039l0.004,0.039l0.008,0.043l0.031,0.156l0.012,0.043l0.008,0.039l0.012,0.039
				l0.008,0.039l0.07,0.234l0.016,0.039l0.012,0.039l0.016,0.039l0.012,0.035l0.031,0.078l0.016,0.035l0.031,0.078l0.016,0.035
				l0.016,0.039l0.02,0.035l0.016,0.039l0.02,0.035l0.016,0.035l0.02,0.039l0.098,0.176l0.023,0.035l0.02,0.035l0.023,0.035
				l0.02,0.035L633,46.453l0.047,0.07l0.02,0.031l0.023,0.035l0.027,0.031l0.023,0.035l0.047,0.062l0.027,0.035l0.023,0.031
				l0.055,0.062l0.023,0.031l0.027,0.031l0.027,0.027L633.426,47l0.086,0.086l0.027,0.031l0.031,0.027l0.027,0.027l0.031,0.027
				l0.027,0.031l0.031,0.027l0.031,0.023l0.094,0.082l0.031,0.023l0.031,0.027l0.031,0.023l0.031,0.027l0.035,0.023l0.031,0.023
				l0.035,0.023l0.031,0.023l0.035,0.023l0.031,0.023l0.07,0.047l0.035,0.02l0.031,0.023l0.07,0.039l0.035,0.023l0.035,0.02
				l0.039,0.02l0.07,0.039l0.035,0.016l0.039,0.02l0.035,0.02l0.035,0.016l0.039,0.02l0.035,0.016l0.039,0.016l0.035,0.016
				l0.078,0.031l0.035,0.016l0.039,0.016l0.039,0.012l0.039,0.016l0.039,0.012l0.035,0.016l0.234,0.07l0.039,0.008l0.043,0.012
				l0.039,0.008l0.039,0.012l0.078,0.016l0.043,0.008l0.078,0.016l0.039,0.004l0.043,0.008l0.039,0.008l0.039,0.004l0.043,0.004
				l0.039,0.004l0.039,0.008l0.043,0.004h0.039l0.043,0.004l0.078,0.008h0.082l0.043,0.004h0.082"/>
			
				<path fill="none" stroke="#000000" stroke-width="1.5" stroke-linecap="round" stroke-linejoin="round" stroke-miterlimit="10" d="
				M359.371,48.297h0.082l0.039-0.004h0.082l0.039-0.004l0.043-0.004h0.039l0.043-0.004l0.078-0.008l0.043-0.008l0.078-0.008
				l0.043-0.008l0.039-0.004l0.039-0.008l0.043-0.008l0.156-0.031l0.043-0.012l0.039-0.008l0.039-0.012l0.039-0.008l0.273-0.082
				l0.039-0.016l0.035-0.012l0.117-0.047l0.035-0.012l0.039-0.016l0.039-0.02l0.035-0.016l0.039-0.016l0.035-0.016l0.035-0.02
				l0.039-0.02l0.035-0.016l0.035-0.02l0.039-0.02l0.141-0.078l0.035-0.023l0.07-0.039l0.035-0.023l0.031-0.023l0.035-0.02
				l0.035-0.023l0.031-0.023l0.035-0.023l0.031-0.023l0.035-0.027l0.062-0.047l0.031-0.027l0.035-0.023l0.031-0.027l0.031-0.023
				l0.062-0.055l0.027-0.027l0.062-0.055l0.027-0.027l0.031-0.027l0.027-0.031l0.031-0.027l0.027-0.027L362.348,47l0.027-0.027
				l0.137-0.156l0.023-0.031l0.027-0.031l0.023-0.031l0.027-0.031l0.023-0.035l0.047-0.062l0.047-0.07l0.023-0.031l0.023-0.035
				l0.02-0.035l0.023-0.031l0.023-0.035l0.039-0.07l0.023-0.035l0.039-0.07l0.02-0.039l0.02-0.035L363,46.07l0.02-0.035l0.02-0.039
				l0.016-0.035l0.016-0.039l0.02-0.035l0.016-0.039l0.016-0.035l0.016-0.039l0.016-0.035l0.031-0.078l0.012-0.039l0.016-0.039
				l0.012-0.035l0.016-0.039l0.07-0.234l0.008-0.039l0.012-0.039l0.008-0.043l0.008-0.039l0.012-0.039l0.016-0.078l0.008-0.043
				l0.008-0.039l0.004-0.039l0.008-0.039l0.004-0.043l0.008-0.039l0.004-0.039l0.004-0.043l0.004-0.039l0.004-0.043l0.008-0.078
				l0.004-0.043V44.43l0.004-0.043v-0.039l0.004-0.039v-0.086"/>
		</g>
	</g>
</g>
</svg>
