<?xml version="1.0" encoding="utf-8"?>
<!-- Generator: Adobe Illustrator 19.2.0, SVG Export Plug-In . SVG Version: 6.00 Build 0)  -->
<svg version="1.1" id="Layer_1" xmlns="http://www.w3.org/2000/svg" xmlns:xlink="http://www.w3.org/1999/xlink" x="0px" y="0px"
	 viewBox="0 0 286 447.1" style="enable-background:new 0 0 286 447.1;" xml:space="preserve">
<style type="text/css">
	.st0{fill:#FFFFFF;}
	.st1{clip-path:url(#SVGID_2_);}
	.st2{fill:none;stroke:#000000;stroke-width:1.5;stroke-linecap:round;stroke-linejoin:round;stroke-miterlimit:10;}
	.st3{fill:#FFFFFF;stroke:#FFFFFF;stroke-miterlimit:10;}
</style>
<g id="surface46">
	<rect x="-355" y="-34.4" class="st0" width="1008" height="504"/>
	<g>
		<g>
			<defs>
				<rect id="SVGID_1_" x="-341.1" y="-20" width="980.2" height="476.2"/>
			</defs>
			<clipPath id="SVGID_2_">
				<use xlink:href="#SVGID_1_"  style="overflow:visible;"/>
			</clipPath>
			<g class="st1">
				<path class="st2" d="M4.4,437.6V9.8h277v427.8H4.4"/>
				<path class="st2" d="M4.4,223.7h277"/>
				<path class="st2" d="M180.2,223.7c0,20.6-16.7,37.3-37.3,37.3c-20.6,0-37.3-16.7-37.3-37.3c0-20.6,16.7-37.3,37.3-37.3
					C163.5,186.4,180.2,203.1,180.2,223.7"/>
				<path class="st2" d="M105.6,415.2h74.6v22.4h-74.6V415.2z"/>
				<path class="st2" d="M105.6,9.8h74.6v22.4h-74.6V9.8z"/>
				<path class="st2" d="M60.8,370.3H225v67.2H60.8V370.3z"/>
				<path class="st2" d="M60.8,9.8H225V77H60.8V9.8z"/>
				<path class="st2" d="M171.2,368.5l-0.2-0.3l-0.2-0.3l-0.5-0.6l-0.8-0.8l-0.3-0.3l-0.3-0.3l-0.3-0.3l-0.3-0.3l-0.3-0.2l-0.3-0.3
					l-0.3-0.2l-0.3-0.2l-0.6-0.5l-0.6-0.5l-0.6-0.5l-0.3-0.2l-0.3-0.2l-0.3-0.2l-0.6-0.4l-0.6-0.4l-0.3-0.2l-0.3-0.2l-0.3-0.2
					l-1-0.6l-0.3-0.2l-0.3-0.2l-0.3-0.2l-0.3-0.2l-0.3-0.2l-0.3-0.2l-0.7-0.3l-0.3-0.2l-0.3-0.2l-0.3-0.2l-0.3-0.1l-0.3-0.1
					l-0.3-0.1l-0.3-0.1l-0.4-0.1l-0.3-0.1l-0.4-0.1l-0.4-0.1l-0.7-0.2l-0.4-0.1l-0.4-0.1l-0.4-0.1l-0.4-0.1l-0.7-0.2l-0.4-0.1
					l-0.4-0.1l-0.7-0.2l-0.4-0.1l-0.4-0.1l-0.4-0.1l-0.4-0.1L149,356l-0.4-0.1l-0.4-0.1l-0.4-0.1l-0.4-0.1l-0.4,0l-0.7-0.1l-0.7-0.1
					l-0.4,0l-0.4,0l-0.4,0l-0.4,0l-0.4,0l-0.4,0l-0.4,0h-0.4l-0.4,0l-0.4,0l-0.4,0l-0.4,0l-0.4,0l-0.4,0l-0.4,0l-0.7,0.1l-0.7,0.1
					l-0.4,0l-0.4,0l-0.4,0.1l-0.4,0.1l-0.7,0.1l-0.4,0.1l-0.4,0.1l-0.4,0.1l-0.4,0.1l-0.4,0.1l-0.4,0.1l-0.4,0.1l-0.4,0.1l-0.4,0.1
					l-0.4,0.1l-0.4,0.1l-0.4,0.1l-0.7,0.2l-0.4,0.1l-0.4,0.1l-0.4,0.1l-0.4,0.1l-0.7,0.3l-0.3,0.1l-0.3,0.1l-0.3,0.1l-0.3,0.1
					l-0.3,0.2l-0.3,0.2l-0.3,0.2l-0.7,0.3l-0.3,0.2l-0.3,0.2l-0.3,0.2l-0.3,0.2l-0.3,0.2l-0.3,0.2l-0.3,0.2l-0.3,0.2l-0.3,0.2
					l-0.3,0.2l-0.3,0.2l-0.3,0.2l-0.3,0.2l-0.3,0.2l-0.3,0.2l-0.3,0.2l-0.6,0.4l-0.3,0.2l-0.6,0.5l-0.3,0.2l-0.3,0.2l-0.6,0.5
					l-0.3,0.2l-0.6,0.5l-0.3,0.3l-0.3,0.3l-0.5,0.5l-0.3,0.3l-0.3,0.3l-0.3,0.3l-0.3,0.3l-0.3,0.3L115,368l-0.2,0.3l-0.2,0.2"/>
				<path class="st2" d="M113.6,77.7l0.5,0.6l0.2,0.3l0.2,0.3l0.2,0.3l0.2,0.3l0.5,0.6l0.3,0.3l0.3,0.3l0.3,0.3l0.3,0.3l0.3,0.3
					l0.3,0.3l0.3,0.3l0.3,0.3l0.6,0.5l0.3,0.2l0.3,0.2l0.3,0.2l0.3,0.2l0.3,0.2l0.3,0.2l0.6,0.5l0.3,0.2l0.3,0.2l0.3,0.2l0.3,0.2
					l0.3,0.2l0.3,0.2l0.6,0.4l0.3,0.2l0.3,0.2l0.3,0.2l0.3,0.2l0.3,0.2l0.3,0.2l0.3,0.2l0.3,0.2l0.3,0.2l0.3,0.2l0.3,0.2l0.3,0.2
					l0.3,0.2l0.3,0.2l0.3,0.1l0.3,0.1l0.3,0.1l0.3,0.1l0.3,0.1l0.3,0.1l0.4,0.1l0.3,0.1l0.4,0.1l0.4,0.1l0.4,0.1l0.4,0.1l0.4,0.1
					l0.7,0.2l0.4,0.1l0.7,0.2l0.7,0.2L135,91l0.4,0.1l0.4,0.1l0.4,0.1l0.4,0.1l0.4,0.1l0.4,0.1l0.4,0.1l0.4,0.1l0.7,0.1l0.4,0
					l0.7,0.1l0.4,0l0.4,0l0.7,0l0.4,0l0.4,0l0.4,0l0.4,0l0.4,0l0.4,0l0.4,0l0.4,0l0.4,0l0.4,0l0.4,0l0.4,0l0.4,0l0.4,0l0.7-0.1
					l0.4,0l0.4-0.1l0.4-0.1l0.4-0.1l0.7-0.1l0.4-0.1l0.4-0.1l0.4-0.1l0.4-0.1l0.4-0.1l0.4-0.1l0.4-0.1l0.4-0.1l0.4-0.1l0.7-0.2
					l0.4-0.1l0.4-0.1l0.4-0.1l0.4-0.1l1.1-0.4l0.3-0.1l0.3-0.1l0.3-0.1l0.3-0.1l0.3-0.1l0.3-0.1l0.3-0.2l0.3-0.2l0.3-0.2l0.3-0.2
					l0.3-0.2l0.7-0.3l0.3-0.2l0.3-0.2l0.3-0.2l0.3-0.2l0.3-0.2l0.3-0.2l0.3-0.2l0.3-0.2l0.3-0.2l0.3-0.2l0.3-0.2l0.3-0.2l0.6-0.4
					l0.6-0.4l0.3-0.2l0.3-0.2l0.6-0.5l0.3-0.2l0.3-0.2l0.6-0.5l0.3-0.2l0.3-0.2l0.3-0.3l0.3-0.3l0.5-0.5l0.3-0.3l0.3-0.3l0.3-0.3
					l0.3-0.3l0.2-0.3l0.2-0.3l0.2-0.3l0.2-0.3l0.5-0.6l0.2-0.3l0.1-0.2"/>
				<path class="st2" d="M128,437h29.7v10.2H128V437z"/>
				<path class="st2" d="M128,0h29.7v10.2H128V0z"/>
				<path class="st2" d="M8.4,437.6L8.4,437.6l0-0.1v0l0,0v0l0-0.1v0l0,0l0,0l0,0l0,0l0,0l0-0.1l0,0l0,0l0-0.1l0,0l0,0l0,0l0,0l0,0
					l-0.1-0.3l0,0l0,0l0,0l0-0.1l0,0l0,0l0,0l0,0l0,0l0,0l0,0l0,0l0,0l-0.1-0.2l0,0l0,0l0,0l0,0l0,0l0,0l0,0l0,0l0,0l0,0l0,0l0-0.1
					l0,0l0,0l0,0l0,0l-0.1-0.1l0,0l-0.1-0.1l0,0l0,0l0,0l0,0l-0.1-0.1l-0.1-0.1l0,0L7,434.4l0,0l0,0l0,0l0,0l0,0l0,0l0,0l0,0l0,0
					l0,0l-0.1,0l0,0l0,0l-0.1,0l0,0l-0.1,0l0,0l0,0l0,0l0,0l0,0l0,0l0,0l0,0l0,0l0,0l-0.1,0l0,0l0,0l0,0l0,0l0,0l0,0l-0.2-0.1l0,0
					l0,0l0,0l0,0l-0.1,0l0,0l-0.1,0l0,0l0,0l0,0l0,0l0,0l0,0l0,0l0,0h0l0,0l0,0H4.5l0,0H4.4"/>
				<path class="st2" d="M281.4,433.5L281.4,433.5l-0.1,0h-0.1l0,0l0,0h0l0,0l0,0l0,0l0,0l-0.1,0l0,0l0,0l-0.1,0l0,0l-0.1,0l0,0l0,0
					l0,0l-0.3,0.1l0,0l0,0l-0.1,0l0,0l0,0l0,0l0,0l0,0l0,0l0,0l0,0l0,0l-0.1,0l0,0l-0.2,0.1l0,0l0,0l0,0l0,0l0,0l0,0l0,0l0,0l0,0
					l0,0l0,0l0,0l0,0l0,0l0,0l0,0l0,0l0,0l-0.1,0.1l0,0l0,0l0,0l0,0l0,0l0,0l0,0l-0.1,0.1l0,0l0,0l0,0l0,0l0,0.1l0,0l0,0l0,0l0,0
					l0,0l0,0.1l0,0l0,0l0,0l0,0l0,0.1l0,0l0,0.1l0,0l0,0.1l0,0l0,0l0,0l0,0l0,0l0,0l0,0l0,0l0,0.1l0,0l0,0l0,0.1l0,0l0,0.2l0,0
					l0,0.1l0,0l0,0l0,0l0,0.1l0,0l0,0.1l0,0l0,0l0,0l0,0l0,0.1l0,0l0,0l0,0v0l0,0v0.1l0,0v0.1"/>
				<path class="st2" d="M277.3,9.8L277.3,9.8L277.3,9.8l0,0.2l0,0v0l0,0l0,0l0,0l0,0.1l0,0l0,0l0,0l0,0l0,0l0,0l0,0l0,0.2l0,0l0,0
					l0,0l0,0l0.1,0.2l0,0l0,0l0,0l0,0l0,0.1l0,0l0,0.1l0,0l0,0l0,0l0,0l0,0l0,0l0,0l0.1,0.2l0,0l0,0l0,0l0,0l0,0l0,0.1l0,0l0,0l0,0
					l0,0l0,0.1l0,0l0,0l0.1,0.1l0,0l0,0l0,0l0.1,0.1l0.1,0.1l0,0l0,0l0,0l0,0l0,0l0,0l0,0l0.1,0.1l0,0l0,0l0,0l0,0l0,0l0,0l0,0l0,0
					l0,0l0,0l0.1,0l0,0l0,0l0.1,0l0,0l0,0l0,0l0.1,0l0,0l0,0l0,0l0,0l0,0l0,0l0,0l0,0l0.1,0l0,0l0,0l0,0l0,0l0,0l0,0l0.2,0.1l0,0
					l0,0l0,0l0,0l0.1,0l0,0l0.1,0l0,0l0,0l0,0l0,0l0,0l0,0l0,0l0,0h0l0,0l0.1,0h0.1l0,0h0.1"/>
				<path class="st2" d="M4.4,13.9L4.4,13.9l0.1,0h0.1l0,0l0,0h0l0,0l0.1,0l0,0l0.1,0l0,0l0,0l0,0l0,0l0.2,0l0,0l0,0l0,0l0,0
					l0.3-0.1l0,0l0,0l0.1,0l0,0l0,0l0,0l0,0l0,0l0,0l0,0l0,0l0,0l0,0l0,0l0.1-0.1l0,0l0.1,0l0,0l0,0l0,0l0,0l0,0l0,0l0,0l0,0l0.1,0
					l0,0l0,0l0,0l0,0l0.1-0.1l0,0l0.1-0.1l0,0l0,0l0,0l0,0l0,0l0.1-0.1l0,0l0.1-0.2l0,0l0,0l0,0l0,0l0,0l0-0.1l0-0.1l0,0l0,0l0,0
					l0,0l0,0l0-0.1l0,0l0-0.1l0,0l0,0l0,0l0,0l0,0l0,0l0,0l0,0l0,0l0,0l0,0l0,0l0-0.1l0,0l0,0l0,0l0,0l0.1-0.2l0,0l0,0l0,0l0,0l0,0
					l0-0.1l0,0l0,0l0,0l0,0l0,0l0,0l0,0l0,0l0,0l0,0l0-0.1l0,0v0l0,0v0l0,0V9.8"/>
			</g>
		</g>
	</g>
</g>
<rect x="38" y="68" class="st3" width="210" height="311"/>
</svg>
