<?xml version="1.0" encoding="utf-8"?>
<!-- Generator: Adobe Illustrator 16.0.4, SVG Export Plug-In . SVG Version: 6.00 Build 0)  -->
<!DOCTYPE svg PUBLIC "-//W3C//DTD SVG 1.1//EN" "http://www.w3.org/Graphics/SVG/1.1/DTD/svg11.dtd">
<svg version="1.1" id="Layer_1" xmlns="http://www.w3.org/2000/svg" xmlns:xlink="http://www.w3.org/1999/xlink" x="0px" y="0px"
	 width="286px" height="223.665px" viewBox="0 -0.991 286 223.665" enable-background="new 0 -0.991 286 223.665"
	 xml:space="preserve">
<g id="surface46">
	<rect x="-355" y="-35.436" fill="#FFFFFF" width="1008" height="504"/>
	<g>
		<g>
			<g>
				<defs>
					<rect id="SVGID_1_" x="-341.1" y="-21.038" width="980.199" height="476.199"/>
				</defs>
				<clipPath id="SVGID_2_">
					<use xlink:href="#SVGID_1_"  overflow="visible"/>
				</clipPath>
				<g clip-path="url(#SVGID_2_)">
					
						<path fill="none" stroke="#000000" stroke-width="1.5" stroke-linecap="round" stroke-linejoin="round" stroke-miterlimit="10" d="
						M4.371,436.564V8.788h277.035v427.777L4.371,436.564"/>
					
						<path fill="none" stroke="#000000" stroke-width="1.5" stroke-linecap="round" stroke-linejoin="round" stroke-miterlimit="10" d="
						M4.371,222.674h277.035"/>
					
						<path fill="none" stroke="#000000" stroke-width="1.5" stroke-linecap="round" stroke-linejoin="round" stroke-miterlimit="10" d="
						M180.168,222.674c0,20.591-16.691,37.281-37.277,37.281c-20.59,0-37.28-16.69-37.28-37.281c0-20.586,16.69-37.276,37.28-37.276
						C163.477,185.396,180.168,202.088,180.168,222.674"/>
					
						<path fill="none" stroke="#000000" stroke-width="1.5" stroke-linecap="round" stroke-linejoin="round" stroke-miterlimit="10" d="
						M105.609,414.158h74.555v22.406h-74.555V414.158z"/>
					
						<path fill="none" stroke="#000000" stroke-width="1.5" stroke-linecap="round" stroke-linejoin="round" stroke-miterlimit="10" d="
						M105.609,8.788h74.555v22.406h-74.555V8.788z"/>
					
						<path fill="none" stroke="#000000" stroke-width="1.5" stroke-linecap="round" stroke-linejoin="round" stroke-miterlimit="10" d="
						M60.797,369.342H224.98v67.224H60.797V369.342z"/>
					
						<path fill="none" stroke="#000000" stroke-width="1.5" stroke-linecap="round" stroke-linejoin="round" stroke-miterlimit="10" d="
						M60.797,8.788H224.98V76.01H60.797V8.788z"/>
					
						<path fill="none" stroke="#000000" stroke-width="1.5" stroke-linecap="round" stroke-linejoin="round" stroke-miterlimit="10" d="
						M171.234,367.541l-0.242-0.285l-0.246-0.276l-0.5-0.556l-0.773-0.809l-0.262-0.263l-0.266-0.262l-0.271-0.262l-0.27-0.26
						l-0.273-0.25l-0.271-0.254l-0.281-0.246l-0.277-0.244l-0.57-0.484l-0.576-0.469l-0.586-0.461l-0.299-0.229l-0.301-0.22
						l-0.301-0.223l-0.609-0.431l-0.617-0.414l-0.312-0.207l-0.312-0.198l-0.316-0.199l-0.961-0.573l-0.324-0.185l-0.324-0.181
						l-0.328-0.18l-0.326-0.176l-0.332-0.172l-0.332-0.168l-0.672-0.328l-0.336-0.156l-0.342-0.156l-0.34-0.151l-0.344-0.147
						l-0.344-0.146l-0.346-0.142l-0.344-0.137l-0.352-0.137l-0.35-0.131l-0.352-0.129l-0.352-0.125l-0.703-0.232l-0.355-0.113
						l-0.359-0.109l-0.354-0.108l-0.359-0.103l-0.719-0.194l-0.363-0.09l-0.357-0.091l-0.729-0.164l-0.365-0.077l-0.363-0.074
						l-0.367-0.069l-0.367-0.065l-0.367-0.062l-0.367-0.059l-0.369-0.056l-0.367-0.051l-0.371-0.053l-0.367-0.043l-0.742-0.078
						l-0.742-0.062l-0.375-0.021l-0.369-0.023l-0.371-0.016l-0.375-0.016l-0.371-0.014l-0.371-0.008l-0.375-0.004h-0.371
						l-0.375,0.008l-0.371,0.008l-0.375,0.014l-0.371,0.012l-0.371,0.02l-0.371,0.023l-0.375,0.027l-0.742,0.062l-0.741,0.077
						l-0.367,0.048l-0.371,0.047l-0.367,0.056l-0.371,0.055l-0.733,0.125l-0.367,0.065l-0.367,0.07l-0.363,0.072l-0.362,0.078
						l-0.363,0.082l-0.363,0.086l-0.363,0.091l-0.358,0.091l-0.363,0.098l-0.359,0.103l-0.354,0.103l-0.359,0.104l-0.711,0.228
						l-0.352,0.117l-0.353,0.121l-0.352,0.125l-0.353,0.129l-0.694,0.266l-0.349,0.141l-0.344,0.143l-0.344,0.146l-0.34,0.147
						l-0.34,0.15l-0.341,0.156l-0.336,0.16l-0.672,0.328l-0.332,0.168l-0.328,0.176l-0.332,0.176l-0.323,0.178l-0.328,0.185
						l-0.32,0.188l-0.324,0.188l-0.315,0.191l-0.32,0.194l-0.316,0.199l-0.312,0.198l-0.312,0.207l-0.309,0.207l-0.309,0.211
						l-0.306,0.216l-0.301,0.215l-0.602,0.444l-0.297,0.224l-0.586,0.461l-0.289,0.233l-0.285,0.238l-0.57,0.482l-0.277,0.246
						l-0.555,0.5l-0.273,0.254l-0.27,0.258l-0.531,0.523l-0.262,0.266L116,365.94l-0.258,0.271l-0.254,0.272l-0.255,0.275
						l-0.245,0.277l-0.246,0.281l-0.191,0.223"/>
					
						<path fill="none" stroke="#000000" stroke-width="1.5" stroke-linecap="round" stroke-linejoin="round" stroke-miterlimit="10" d="
						M113.613,76.682l0.469,0.578l0.238,0.289l0.237,0.285l0.246,0.281l0.246,0.277l0.5,0.555l0.258,0.27l0.255,0.27l0.262,0.27
						l0.262,0.262l0.266,0.262l0.271,0.262l0.27,0.254l0.273,0.254l0.555,0.5l0.281,0.246l0.281,0.242l0.285,0.238l0.289,0.238
						l0.288,0.234l0.293,0.23l0.595,0.453l0.301,0.223l0.301,0.219l0.306,0.215l0.305,0.211l0.309,0.211l0.31,0.207l0.625,0.406
						l0.315,0.195l0.32,0.195l0.32,0.191l0.319,0.188l0.324,0.184l0.328,0.184l0.324,0.176l0.332,0.176l0.328,0.172l0.336,0.168
						l0.332,0.164l0.336,0.164l0.34,0.156l0.336,0.156l0.344,0.148l0.34,0.148l0.345,0.145l0.344,0.141l0.348,0.141l0.348,0.133
						l0.353,0.129l0.348,0.129l0.353,0.125l0.354,0.117l0.353,0.117l0.354,0.113l0.355,0.109l0.719,0.211l0.359,0.098l0.719,0.188
						l0.727,0.172l0.363,0.082l0.367,0.074l0.363,0.074l0.366,0.07l0.367,0.066l0.367,0.062l0.367,0.059l0.371,0.055l0.367,0.051
						l0.741,0.094l0.367,0.039l0.742,0.07l0.375,0.027l0.371,0.027l0.742,0.039l0.375,0.012l0.371,0.012l0.375,0.008l0.37,0.004
						l0.371-0.004l0.375-0.004l0.371-0.008l0.375-0.012l0.371-0.016l0.371-0.02l0.371-0.023l0.375-0.027l0.371-0.027l0.371-0.035
						l0.742-0.078l0.365-0.047l0.371-0.051l0.367-0.051l0.371-0.055l0.734-0.125l0.365-0.066l0.363-0.074l0.367-0.074l0.363-0.078
						l0.363-0.082l0.361-0.086l0.363-0.09l0.357-0.09l0.359-0.098l0.719-0.203l0.355-0.109l0.359-0.109l0.352-0.113l0.355-0.117
						l1.055-0.375l0.348-0.133l0.348-0.137l0.346-0.137l0.348-0.145l0.34-0.145l0.346-0.148l0.34-0.152l0.34-0.156l0.336-0.16
						l0.336-0.164l0.332-0.164l0.664-0.344l0.328-0.176l0.328-0.18l0.322-0.184l0.32-0.184l0.324-0.191l0.314-0.191l0.32-0.195
						l0.316-0.199l0.312-0.199l0.312-0.207l0.31-0.207l0.306-0.211l0.608-0.43l0.603-0.445l0.293-0.227l0.297-0.227l0.578-0.469
						l0.289-0.238l0.284-0.238l0.562-0.492l0.277-0.25l0.272-0.25l0.272-0.254l0.271-0.258l0.53-0.523l0.263-0.266l0.258-0.266
						l0.259-0.273l0.254-0.273l0.25-0.273l0.25-0.277l0.246-0.281l0.241-0.285l0.478-0.57l0.233-0.289l0.147-0.188"/>
					
						<path fill="none" stroke="#000000" stroke-width="1.5" stroke-linecap="round" stroke-linejoin="round" stroke-miterlimit="10" d="
						M128.02,435.955h29.742v10.185H128.02V435.955z"/>
					
						<path fill="none" stroke="#000000" stroke-width="1.5" stroke-linecap="round" stroke-linejoin="round" stroke-miterlimit="10" d="
						M128.02-0.991h29.742V9.193H128.02V-0.991z"/>
					
						<path fill="none" stroke="#000000" stroke-width="1.5" stroke-linecap="round" stroke-linejoin="round" stroke-miterlimit="10" d="
						M8.445,436.564v-0.082l-0.004-0.039V436.4l-0.004-0.039v-0.043l-0.009-0.078v-0.043l-0.004-0.039l-0.008-0.039l-0.004-0.043
						l-0.004-0.039l-0.004-0.043l-0.017-0.078l-0.004-0.039l-0.008-0.043l-0.022-0.116l-0.009-0.043l-0.012-0.039l-0.008-0.039
						l-0.012-0.039l-0.009-0.039l-0.082-0.272l-0.016-0.039l-0.012-0.039l-0.017-0.034l-0.047-0.117l-0.016-0.034l-0.016-0.039
						l-0.017-0.035l-0.016-0.039l-0.021-0.035l-0.016-0.039l-0.021-0.034l-0.016-0.035l-0.02-0.039l-0.099-0.176l-0.022-0.035
						l-0.021-0.034l-0.022-0.035l-0.021-0.035l-0.022-0.035l-0.023-0.03l-0.02-0.035l-0.023-0.03l-0.022-0.035l-0.023-0.031
						l-0.027-0.034l-0.047-0.062l-0.027-0.035l-0.022-0.03l-0.027-0.031l-0.022-0.03l-0.082-0.095l-0.027-0.026l-0.055-0.062
						l-0.027-0.026l-0.031-0.027l-0.026-0.03l-0.031-0.026l-0.086-0.086l-0.062-0.056l-0.03-0.022l-0.062-0.056l-0.031-0.022
						l-0.03-0.027l-0.031-0.021l-0.031-0.027l-0.035-0.022l-0.03-0.022l-0.035-0.023l-0.031-0.021l-0.035-0.023l-0.031-0.021
						l-0.069-0.047l-0.031-0.021l-0.035-0.021l-0.07-0.039L6.4,433.041l-0.07-0.039l-0.039-0.02l-0.035-0.021l-0.035-0.016
						l-0.035-0.021l-0.039-0.02l-0.034-0.017l-0.039-0.021l-0.035-0.017L6,432.834l-0.035-0.016l-0.078-0.031l-0.035-0.016
						l-0.039-0.017l-0.039-0.013l-0.038-0.016l-0.035-0.013l-0.039-0.017l-0.234-0.07l-0.039-0.008l-0.039-0.012l-0.043-0.009
						l-0.039-0.012l-0.121-0.028l-0.043-0.009l-0.077-0.017l-0.043-0.004l-0.039-0.008l-0.039-0.004l-0.043-0.005l-0.039-0.008
						l-0.039-0.004l-0.043-0.004L4.7,432.5H4.661l-0.043-0.004l-0.039-0.004H4.497l-0.039-0.004H4.372"/>
					
						<path fill="none" stroke="#000000" stroke-width="1.5" stroke-linecap="round" stroke-linejoin="round" stroke-miterlimit="10" d="
						M281.406,432.49h-0.082l-0.039,0.004h-0.082l-0.039,0.004l-0.043,0.004h-0.039l-0.039,0.005L281,432.51l-0.039,0.004
						l-0.043,0.009l-0.078,0.008l-0.043,0.008l-0.039,0.004l-0.078,0.017l-0.043,0.008l-0.117,0.022l-0.037,0.012l-0.045,0.009
						l-0.037,0.008l-0.312,0.094l-0.039,0.017l-0.035,0.013l-0.078,0.03l-0.037,0.013l-0.035,0.017l-0.039,0.017l-0.035,0.016
						l-0.039,0.021l-0.035,0.017l-0.039,0.017l-0.035,0.021l-0.039,0.016l-0.068,0.039l-0.039,0.021l-0.176,0.099l-0.035,0.022
						l-0.035,0.021l-0.035,0.022l-0.031,0.022l-0.033,0.021l-0.035,0.022l-0.031,0.023l-0.035,0.021l-0.031,0.023l-0.033,0.022
						l-0.031,0.026l-0.031,0.022l-0.031,0.026l-0.033,0.023l-0.031,0.026l-0.031,0.022l-0.031,0.026l-0.025,0.027l-0.096,0.081
						l-0.025,0.027l-0.031,0.026l-0.025,0.031l-0.031,0.026l-0.027,0.026l-0.027,0.031l-0.025,0.026l-0.109,0.125l-0.025,0.026
						l-0.027,0.031l-0.023,0.034l-0.025,0.031l-0.047,0.062l-0.027,0.031l-0.022,0.034l-0.022,0.031l-0.023,0.034l-0.021,0.031
						l-0.047,0.069l-0.021,0.031l-0.021,0.034l-0.021,0.035l-0.021,0.035l-0.039,0.069l-0.023,0.035l-0.039,0.069l-0.016,0.039
						l-0.039,0.069l-0.018,0.039l-0.02,0.035l-0.016,0.034l-0.021,0.039l-0.016,0.039l-0.018,0.035l-0.016,0.039l-0.016,0.035
						l-0.031,0.078l-0.012,0.038l-0.018,0.035l-0.021,0.077l-0.018,0.039l-0.047,0.156l-0.008,0.039l-0.023,0.078l-0.008,0.039
						l-0.008,0.043l-0.012,0.039l-0.023,0.116l-0.004,0.043l-0.016,0.078l-0.006,0.043l-0.008,0.039l-0.004,0.038l-0.004,0.043
						l-0.008,0.078l-0.004,0.043l-0.004,0.039l-0.006,0.043v0.039l-0.004,0.039v0.082l-0.004,0.043v0.054"/>
					
						<path fill="none" stroke="#000000" stroke-width="1.5" stroke-linecap="round" stroke-linejoin="round" stroke-miterlimit="10" d="
						M277.332,8.788v0.039l0.004,0.043v0.082l0.004,0.039V9.03l0.004,0.043l0.004,0.039l0.006,0.043l0.008,0.078l0.004,0.043
						l0.004,0.039l0.008,0.039l0.004,0.043l0.01,0.039l0.004,0.039l0.008,0.043l0.031,0.156l0.012,0.043l0.008,0.039l0.012,0.039
						l0.01,0.039l0.068,0.234l0.018,0.039l0.012,0.039l0.016,0.039l0.014,0.035l0.029,0.078l0.018,0.035l0.03,0.078l0.017,0.035
						l0.016,0.039l0.021,0.035l0.016,0.039l0.021,0.035l0.016,0.035l0.02,0.039l0.1,0.176l0.021,0.035l0.021,0.035l0.021,0.035
						l0.021,0.035l0.01,0.034l0.047,0.07l0.021,0.031l0.021,0.035l0.027,0.031l0.021,0.035l0.049,0.062l0.025,0.035l0.023,0.031
						l0.055,0.062l0.023,0.031l0.025,0.031l0.027,0.027l0.057,0.066l0.086,0.086l0.027,0.031l0.031,0.027l0.025,0.027l0.031,0.027
						l0.027,0.031l0.029,0.027l0.031,0.023l0.094,0.082l0.031,0.023l0.031,0.027l0.031,0.023l0.029,0.027l0.035,0.023l0.031,0.023
						l0.035,0.023l0.031,0.023l0.033,0.023l0.031,0.023l0.07,0.047l0.035,0.02l0.029,0.023l0.07,0.039l0.035,0.023l0.035,0.02
						l0.039,0.02l0.068,0.039l0.035,0.016l0.039,0.02l0.035,0.02l0.035,0.016l0.039,0.02l0.033,0.016l0.039,0.016l0.035,0.016
						l0.078,0.031l0.035,0.016l0.039,0.016l0.039,0.012l0.039,0.016l0.039,0.012l0.033,0.016l0.234,0.07l0.039,0.008l0.043,0.012
						l0.039,0.008l0.039,0.012l0.078,0.016l0.043,0.008l0.078,0.016l0.039,0.004l0.043,0.008l0.039,0.008l0.039,0.004l0.043,0.004
						l0.039,0.004l0.039,0.008l0.043,0.004h0.039l0.043,0.004l0.078,0.008h0.08l0.045,0.004h0.08"/>
					
						<path fill="none" stroke="#000000" stroke-width="1.5" stroke-linecap="round" stroke-linejoin="round" stroke-miterlimit="10" d="
						M4.371,12.861h0.082l0.039-0.004h0.082l0.039-0.004l0.043-0.004h0.039l0.043-0.004l0.078-0.008l0.043-0.008l0.078-0.008
						l0.043-0.008l0.038-0.004l0.039-0.008L5.1,12.793l0.156-0.031L5.3,12.75l0.039-0.008l0.039-0.012l0.039-0.008L5.69,12.64
						l0.039-0.016l0.034-0.012l0.117-0.047l0.035-0.012l0.039-0.016l0.039-0.02l0.035-0.016l0.039-0.016l0.035-0.016l0.034-0.021
						l0.039-0.021l0.035-0.016l0.035-0.02l0.039-0.02l0.141-0.078l0.035-0.023l0.07-0.039l0.035-0.023l0.03-0.023l0.035-0.02
						l0.035-0.023l0.031-0.023l0.035-0.023l0.03-0.023L6.8,12.048l0.062-0.047l0.031-0.027l0.034-0.023l0.031-0.027l0.031-0.023
						l0.062-0.055l0.027-0.027l0.062-0.055l0.026-0.027l0.031-0.027l0.027-0.031l0.03-0.027l0.027-0.027l0.063-0.061l0.027-0.027
						l0.137-0.156l0.023-0.031l0.027-0.031l0.022-0.031l0.027-0.031l0.022-0.035l0.047-0.062l0.048-0.07l0.022-0.031l0.023-0.035
						l0.02-0.035l0.023-0.031l0.022-0.035l0.039-0.07l0.023-0.035l0.039-0.07l0.02-0.039l0.021-0.035L8,10.634L8.02,10.6
						l0.021-0.039l0.016-0.035l0.017-0.039l0.02-0.035l0.017-0.039l0.016-0.035l0.016-0.039l0.017-0.035l0.03-0.078l0.013-0.039
						l0.016-0.039l0.012-0.035l0.017-0.039L8.317,9.84L8.321,9.8l0.012-0.039l0.008-0.043L8.349,9.68l0.013-0.039l0.016-0.078
						L8.385,9.52l0.008-0.04l0.004-0.039l0.009-0.039L8.41,9.359L8.417,9.32l0.004-0.039l0.004-0.043l0.004-0.039l0.004-0.043
						L8.44,9.079l0.005-0.043V8.995l0.004-0.043V8.913l0.004-0.039V8.788"/>
				</g>
			</g>
		</g>
	</g>
</g>
</svg>
