<?xml version="1.0" encoding="iso-8859-1"?>
<!-- Generator: Adobe Illustrator 16.0.0, SVG Export Plug-In . SVG Version: 6.00 Build 0)  -->
<!DOCTYPE svg PUBLIC "-//W3C//DTD SVG 1.1//EN" "http://www.w3.org/Graphics/SVG/1.1/DTD/svg11.dtd">
<svg version="1.1" id="Capa_1" xmlns="http://www.w3.org/2000/svg" xmlns:xlink="http://www.w3.org/1999/xlink" x="0px" y="0px"
	 width="409.403px" height="409.403px" viewBox="0 0 409.403 409.403" style="enable-background:new 0 0 409.403 409.403;"
	 xml:space="preserve">
<g>
	<g>
		<path d="M301.939,190.993c6.172-10.501,26.365-23.006,26.365-23.006s1.903-0.635-14.219-6.324
			c-6.239-2.202-13.112,0.084-19.203,3.695c-8.74-13.018-39.101-64.514,1.579-98.821c25.358-21.379,44.702-25.039,58.82-27.706
			c13.148-2.484,23.544-4.446,26.886-20.614c0.445-2.124-0.917-4.202-3.05-4.639c-2.147-0.483-4.199,0.912-4.645,3.043
			c-2.268,11.017-7.649,12.036-20.654,14.505c-14.122,2.667-35.485,6.708-62.419,29.423c-45.601,38.431-12.56,94.926-2.974,109.262
			c-5.29,4.156-9.277,8.486-10.487,9.858c-15.762-8.333-35.206-18.246-47.136-23.221c-22.752-9.476-51.666-15.807-86.732,22.103
			C109.002,216.471,0,339.691,0,339.691l72.506,38.23l183.889-175.674C256.396,202.248,281.986,181.726,301.939,190.993z
			 M195.727,240.804l-68.559-31.595c0,0,35.392-40.126,46.127-47.071l66.986,32.222
			C240.281,194.359,203.309,230.368,195.727,240.804z"/>
		<path d="M403.512,12.06c-15.553,9.001-16.618,26.074-18.935,63.478c-0.806,12.988-1.815,29.156-3.619,48.482
			c-4.231,45.286-23.535,60.827-36.72,66.193c-1.274-12.788-8.011-22.47-14.968-18.468c-14.379,8.279-22.935,18.997-25.973,23.237
			c-2.437-1.082-4.989-1.801-7.682-2.132c-19.071-2.384-35.55,10.971-36.921,12.061L74.971,380.431l28.621,17.44
			c0,0,69.854-64.015,112.569-52.546c2.111,1.535,4.348,2.89,6.748,4.023c30.32,14.339,71.765-9.718,92.563-53.716
			c7.458-15.809,11.209-32.007,11.594-46.975c0.597-6.82,0.272-13.405-0.838-19.516c1.831-1.72,4.316-4.124,7.698-7.507
			c6.568-6.576,9.605-15.063,10.327-23.221c15.377-5.336,39.71-21.949,44.526-73.65c1.815-19.466,2.821-35.688,3.631-48.729
			c2.208-35.556,3.122-50.269,15.028-57.168c1.883-1.09,2.521-3.48,1.435-5.366C407.775,11.623,405.375,10.972,403.512,12.06z
			 M331.559,206.816c-3.619,0-6.548-4.4-6.548-9.812c0-5.42,2.929-9.812,6.548-9.812c2.473,0,4.553,2.138,5.671,5.197
			c-3.126,0.651-5.274,0.697-5.611,0.689c-2.315-0.276-3.938,1.679-3.987,3.841c-0.044,2.162,1.672,3.963,3.835,4.009
			c0.013,0,0.028,0,0.045,0c0.368,0,2.696-0.07,6.155-0.759C336.784,204.02,334.424,206.816,331.559,206.816z"/>
	</g>
</g>
<g>
</g>
<g>
</g>
<g>
</g>
<g>
</g>
<g>
</g>
<g>
</g>
<g>
</g>
<g>
</g>
<g>
</g>
<g>
</g>
<g>
</g>
<g>
</g>
<g>
</g>
<g>
</g>
<g>
</g>
</svg>
