<?xml version="1.0" encoding="utf-8"?>
<!-- Generator: Adobe Illustrator 16.0.4, SVG Export Plug-In . SVG Version: 6.00 Build 0)  -->
<!DOCTYPE svg PUBLIC "-//W3C//DTD SVG 1.1//EN" "http://www.w3.org/Graphics/SVG/1.1/DTD/svg11.dtd">
<svg version="1.1" id="Capa_1" xmlns="http://www.w3.org/2000/svg" xmlns:xlink="http://www.w3.org/1999/xlink" x="0px" y="0px"
	 width="409.403px" height="409.402px" viewBox="0 0 409.403 409.402" enable-background="new 0 0 409.403 409.402"
	 xml:space="preserve">
<g>
	<g>
		<path fill="#FFFFFF" d="M301.94,190.993c6.172-10.501,26.363-23.007,26.363-23.007s1.904-0.635-14.219-6.323
			c-6.238-2.202-13.111,0.084-19.203,3.694c-8.739-13.018-39.1-64.514,1.58-98.82c25.357-21.379,44.701-25.039,58.82-27.706
			c13.146-2.484,23.543-4.446,26.885-20.614c0.445-2.124-0.916-4.202-3.049-4.639c-2.148-0.483-4.199,0.912-4.646,3.043
			c-2.268,11.017-7.648,12.036-20.652,14.505c-14.123,2.667-35.486,6.708-62.42,29.423c-45.602,38.431-12.561,94.926-2.975,109.262
			c-5.289,4.156-9.276,8.486-10.486,9.858c-15.762-8.333-35.206-18.246-47.136-23.221c-22.753-9.477-51.666-15.808-86.732,22.103
			C109.002,216.471,0,339.691,0,339.691l72.506,38.23l183.889-175.674C256.396,202.248,281.986,181.726,301.94,190.993z
			 M195.727,240.804l-68.559-31.595c0,0,35.392-40.126,46.127-47.071l66.987,32.222
			C240.282,194.359,203.309,230.368,195.727,240.804z"/>
		<path fill="#FFFFFF" d="M403.512,12.06c-15.553,9.001-16.619,26.074-18.936,63.479c-0.805,12.987-1.814,29.155-3.619,48.481
			c-4.23,45.286-23.535,60.827-36.719,66.193c-1.275-12.788-8.012-22.47-14.969-18.468c-14.379,8.278-22.936,18.997-25.973,23.236
			c-2.438-1.082-4.99-1.801-7.682-2.132c-19.072-2.384-35.551,10.971-36.922,12.062L74.971,380.431l28.621,17.44
			c0,0,69.854-64.016,112.569-52.546c2.111,1.534,4.348,2.89,6.748,4.022c30.32,14.339,71.766-9.718,92.562-53.716
			c7.459-15.809,11.209-32.007,11.596-46.975c0.596-6.82,0.271-13.405-0.84-19.517c1.832-1.72,4.316-4.124,7.699-7.507
			c6.568-6.576,9.605-15.063,10.326-23.221c15.377-5.336,39.711-21.949,44.527-73.65c1.814-19.466,2.82-35.688,3.631-48.729
			c2.207-35.557,3.121-50.27,15.027-57.168c1.883-1.091,2.521-3.48,1.436-5.366C407.776,11.623,405.375,10.972,403.512,12.06z
			 M331.559,206.816c-3.619,0-6.549-4.399-6.549-9.812c0-5.42,2.93-9.812,6.549-9.812c2.473,0,4.553,2.139,5.672,5.197
			c-3.127,0.651-5.275,0.697-5.611,0.689c-2.316-0.276-3.939,1.679-3.988,3.841c-0.043,2.162,1.672,3.963,3.836,4.009
			c0.014,0,0.027,0,0.045,0c0.367,0,2.695-0.07,6.154-0.759C336.784,204.02,334.424,206.816,331.559,206.816z"/>
	</g>
</g>
</svg>
